Coordinates
version=1
nRows=17
nColumns=38
inDegrees=no

Units are S.I. units (second, meters, Newtons, ...)
If the header above contains a line with 'inDegrees', this indicates whether rotational values are in degrees (yes) or radians (no).

endheader
time	pelvis_tilt	pelvis_list	pelvis_rotation	pelvis_tx	pelvis_ty	pelvis_tz	hip_flexion_r	hip_adduction_r	hip_rotation_r	knee_angle_r	ankle_angle_r	subtalar_angle_r	mtp_angle_r	hip_flexion_l	hip_adduction_l	hip_rotation_l	knee_angle_l	ankle_angle_l	subtalar_angle_l	mtp_angle_l	lumbar_extension	lumbar_bending	lumbar_rotation	arm_flex_r	arm_add_r	arm_rot_r	elbow_flex_r	pro_sup_r	wrist_flex_r	wrist_dev_r	arm_flex_l	arm_add_l	arm_rot_l	elbow_flex_l	pro_sup_l	wrist_flex_l	wrist_dev_l
0.72	0.514509	1.30576	-1.91573	0.36968	1.14437	0.92273	-0.14363	-0.141549	-0.392015	0.242889	-0.15085	0	0	0.0989688	-0.0492806	-0.140305	1.38672	-0.135852	0	0	-0.236087	0.00763658	0.198791	-0.260136	-0.694361	-0.0707727	1.5978	0.628502	0	0	0.610392	-0.61836	1.0263	1.13647	0.433355	0	0
0.73	0.693049	1.32036	-2.06775	0.373964	1.13978	0.922277	-0.104566	-0.194238	-0.436749	0.292846	-0.133433	0	0	0.0953507	0.219026	0.308105	1.34412	-0.0237056	0	0	-0.208509	-0.0231067	0.170852	-0.252059	-0.686616	-0.0715211	1.58928	0.639794	0	0	0.60826	-0.610762	1.01701	1.12487	0.439678	0	0
0.74	0.532952	1.3055	-1.94902	0.36784	1.1262	0.924178	-0.183334	-0.133099	-0.353346	0.181988	-0.162598	0	0	0.131171	-0.043465	-0.174682	1.33948	-0.121638	0	0	-0.231976	0.00374253	0.220988	-0.271823	-0.693588	-0.0857424	1.60426	0.631316	0	0	0.610989	-0.600085	1.0205	1.11605	0.438248	0	0
0.75	0.546019	1.30493	-1.96779	0.367282	1.11728	0.924532	-0.193416	-0.135695	-0.357343	0.180423	-0.15626	0	0	0.145887	-0.0380703	-0.187171	1.31075	-0.117792	0	0	-0.230976	-0.000798389	0.226685	-0.271676	-0.694781	-0.0870117	1.60558	0.631681	0	0	0.611023	-0.599132	1.01882	1.11593	0.43831	0	0
0.76	0.715268	1.322	-2.1072	0.371869	1.11295	0.923352	-0.149014	-0.181211	-0.41084	0.236277	-0.135132	0	0	0.150054	0.216593	0.266196	1.25043	-0.0161098	0	0	-0.201657	-0.0273224	0.194201	-0.259647	-0.688468	-0.0839775	1.59597	0.642229	0	0	0.608479	-0.594848	1.00852	1.10881	0.44343	0	0
0.77	0.551659	1.3029	-1.98377	0.366087	1.0997	0.925135	-0.24248	-0.123904	-0.311134	0.105549	-0.183114	0	0	0.170049	-0.0362083	-0.215395	1.24327	-0.12495	0	0	-0.233375	-0.00603562	0.235447	-0.267227	-0.698492	-0.0861118	1.60727	0.630546	0	0	0.613883	-0.601275	1.01933	1.12004	0.437085	0	0
0.78	0.561216	1.30371	-1.99519	0.366127	1.09097	0.924933	-0.251924	-0.124834	-0.318099	0.105241	-0.175372	0	0	0.184566	-0.0311679	-0.223709	1.20607	-0.129179	0	0	-0.231739	-0.00910975	0.235736	-0.264301	-0.699863	-0.0850258	1.60764	0.631538	0	0	0.615003	-0.603992	1.02042	1.12393	0.437278	0	0
0.79	0.710955	1.32387	-2.11042	0.370859	1.08675	0.923361	-0.219364	-0.15261	-0.350758	0.125351	-0.167983	0	0	0.191428	0.201215	0.227586	1.1249	-0.0385312	0	0	-0.201758	-0.028613	0.19902	-0.251395	-0.693501	-0.0809744	1.59773	0.640645	0	0	0.612912	-0.599561	1.01052	1.11621	0.441438	0	0
0.8	0.567651	1.30757	-2.00123	0.366464	1.07367	0.924281	-0.308703	-0.109494	-0.249691	0.00299529	-0.221462	0	0	0.21239	-0.0240403	-0.23455	1.12629	-0.150778	0	0	-0.227522	-0.00957266	0.234467	-0.260684	-0.70332	-0.0843998	1.60927	0.62999	0	0	0.617047	-0.604062	1.02012	1.12562	0.434682	0	0
0.81	0.578246	1.31195	-2.00806	0.367277	1.06516	0.923513	-0.316738	-0.107548	-0.255252	0	-0.215851	0	0	0.228907	-0.0138241	-0.227481	1.08528	-0.150396	0	0	-0.222259	-0.00970659	0.230514	-0.259664	-0.703516	-0.0856594	1.60993	0.63218	0	0	0.618345	-0.604486	1.02102	1.12626	0.437484	0	0
0.82	0.71333	1.33345	-2.1072	0.371769	1.06081	0.921699	-0.288501	-0.124442	-0.283308	0.0101815	-0.205328	0	0	0.228002	0.1853	0.198196	0.981005	-0.0640609	0	0	-0.192992	-0.0243394	0.193932	-0.248523	-0.696318	-0.0828955	1.60051	0.637543	0	0	0.61797	-0.599312	1.01317	1.11674	0.442299	0	0
0.83	0.624046	1.32958	-2.03378	0.370208	1.04934	0.921071	-0.321123	-0.102645	-0.273657	0	-0.204827	0	0	0.269539	0.0577055	-0.096063	0.992656	-0.119243	0	0	-0.202342	-0.00913471	0.21145	-0.257188	-0.700628	-0.0894452	1.60925	0.635708	0	0	0.620846	-0.601799	1.02037	1.12254	0.441013	0	0
0.84	0.72567	1.34288	-2.10941	0.373451	1.04371	0.919744	-0.307578	-0.113354	-0.295458	0	-0.180506	0	0	0.248904	0.180715	0.18908	0.875663	-0.0685833	0	0	-0.183554	-0.0213905	0.184633	-0.249093	-0.69199	-0.0901267	1.6024	0.646151	0	0	0.622632	-0.59975	1.01702	1.11701	0.446542	0	0
0.85	0.731297	1.34752	-2.10954	0.374373	1.03519	0.918671	-0.318475	-0.106965	-0.299468	0	-0.186575	0	0	0.255905	0.178822	0.185933	0.818502	-0.067712	0	0	-0.179248	-0.0198888	0.179636	-0.249193	-0.69119	-0.0924076	1.60335	0.646443	0	0	0.624934	-0.59902	1.0181	1.11656	0.446236	0	0
0.86	0.738522	1.35164	-2.11109	0.375358	1.02669	0.917535	-0.327725	-0.101465	-0.307002	0	-0.184799	0	0	0.261095	0.177015	0.179924	0.758929	-0.0685618	0	0	-0.175421	-0.0193952	0.173893	-0.248177	-0.6901	-0.0937751	1.60367	0.647318	0	0	0.627055	-0.599496	1.01864	1.11741	0.442692	0	0
0.87	0.746617	1.35531	-2.11374	0.376323	1.01815	0.916333	-0.336776	-0.0963951	-0.314402	0	-0.178647	0	0	0.264536	0.174995	0.169365	0.697542	-0.0700435	0	0	-0.171933	-0.01982	0.1678	-0.24578	-0.689146	-0.0932757	1.60299	0.648176	0	0	0.630785	-0.601792	1.02207	1.11906	0.441623	0	0
0.88	0.756768	1.35912	-2.1189	0.377295	1.00948	0.915055	-0.345231	-0.0916865	-0.321074	0	-0.171479	0	0	0.266622	0.172532	0.153573	0.63401	-0.0739416	0	0	-0.167608	-0.0204188	0.162673	-0.244306	-0.688171	-0.0930405	1.60234	0.648681	0	0	0.634413	-0.602075	1.02494	1.11827	0.440541	0	0
